# xmcd CD database file
#
# Track frame offsets:
#	150
#	9472
#	42027
#	49852
#	69690
#	86707
#	119785
#	134882
#	157167
#	166157
#	184750
#	214615
#	233607
#
# Disc length: 3891 seconds
#
# Revision: 6
# Processed by: cddbd v1.5.2PL0 Copyright (c) Steve Scherf et al.
# Submitted via: CDex 1.51
#
DISCID=b90f310d
DTITLE=Olivier Messiaen - Préludes - Quatre études rythmiques - Cantéyodjayâ  (Håkon Austbø, piano)
DYEAR=1996
DGENRE=Musique Contemporaine
TTITLE0=Prélude - La colombe
TTITLE1=Prélude - Chant d'extase dans un paysage triste
TTITLE2=Prélude - Le nombre léger
TTITLE3=Prélude - Instants défunts
TTITLE4=Prélude - Les sons impalpables du rêve
TTITLE5=Prélude - Cloches d'angoisse et larmes d'adieu
TTITLE6=Prélude - Plainte calme
TTITLE7=Prélude - Un reflet dans le vent
TTITLE8=Étude rythmique - Île de feu  -I-
TTITLE9=Étude rythmique - Mode de valeurs et d'intensités
TTITLE10=Étude rythmique - Neumes rythmiques
TTITLE11=Étude rythmique - Île de feu  -II-
TTITLE12=Cantéyodjayâ
EXTD=Håkon Austbø\n(1908-1992]\nRec. at St. Martin's Church,\nEast Woodhay, Hampshire,\n15th to 18th July, 1996 YEAR: 1996
EXTT0=
EXTT1=
EXTT2=
EXTT3=
EXTT4=
EXTT5=
EXTT6=
EXTT7=
EXTT8=
EXTT9=
EXTT10=
EXTT11=
EXTT12=
PLAYORDER=
